<?xml version="1.0" encoding="utf-8"?>
<!-- Generator: Adobe Illustrator 24.2.1, SVG Export Plug-In . SVG Version: 6.00 Build 0)  -->
<svg version="1.1" id="Calque_1" xmlns="http://www.w3.org/2000/svg" xmlns:xlink="http://www.w3.org/1999/xlink" x="0px" y="0px"
	 viewBox="0 0 595.28 841.89" style="enable-background:new 0 0 595.28 841.89;" xml:space="preserve">
<style type="text/css">
	.st0{fill:#FFFFFF;}
</style>
<g>
	<g>
		<path class="st0" d="M279.67,445.22H278c-0.73,1.3-1.17,2.33,0.33,3.33h1.33C280.94,447.97,281.05,445.79,279.67,445.22z"/>
		<path class="st0" d="M316,443.89c0-0.11,0-0.22,0-0.33c-0.64-0.65-0.49-2.52-0.67-3.33c-0.17-0.8-0.03-2.69-0.67-3.33h-1
			c-0.65,1.13-1.08,2.23-1.67,3.33c-0.47,0.88-1.78,2.25-1.67,3.33H310c-0.01-1.1-1.06-2.46-1.67-3.33
			c-0.71-1.02-0.93-2.26-1.67-3.33h-1c0,0.5-0.22,1.13-0.33,1.67c-0.13,0.62-0.24,1.07-0.33,1.67c-0.18,1.16-0.33,2.1-0.33,3.33
			h-0.33c0,0.11,0,0.22,0,0.33c0,0.92-0.92,3.86-0.33,4.33h2.67c0-1.58,0.33-2.74,0.33-4.33h0.33c0.75,1.65,1.52,3.04,2.33,4.67h1
			c0.75-1.65,1.52-3.04,2.33-4.67h0.33c0,1.6,0.33,2.76,0.33,4.33h3c0.16-0.66-0.23-1.46-0.33-2.17
			C316.22,445.27,316,444.75,316,443.89z"/>
		<path class="st0" d="M286,439.56h1.33c0.53,0.27,1.07,0.43,1.33,1h0.67c0.22-0.33,0.44-0.67,0.67-1h0.33
			c1.18-1.29-1.05-2.19-2-2.67h-3c-1.38,0.69-2.87,1.25-3.67,2.67c-0.66,1.01-0.67,1.77-0.67,3c0,0.53-0.07,1.14,0,1.67
			c0.08,0.53,0.35,0.79,0.33,1.33h0.33c-0.23,1.44,2.65,2.49,3.67,3H288c0.61-0.3,1.67-0.62,2.17-1.08c0.9-0.84,0.31-1.06-0.17-1.92
			c-0.11-0.22-0.22-0.44-0.33-0.67h-1c-0.22,0.22-0.44,0.44-0.67,0.67h-2.33c-1.22-0.81-1.67-1.6-1.67-3
			C284,441.12,284.81,440.37,286,439.56z"/>
		<path class="st0" d="M350,440.72c-0.17,1.05-0.34,1.86-0.67,2.83c-0.7,2.09-1.97,3.48-4.33,4.17c-3.75,1.09-7.67,1.79-11.33,3.17
			h14.67c1.16-0.98,2.55-1.45,3.67-2.5c1.17-1.1,1.56-2.12,2-3.5c0.37-1.15,0.61-2.34,1-3.5c0.21-0.62,0.48-1.18,0.67-1.83
			c0.11-0.39,0.32-1.32,0.67-1.67H351C351.02,438.9,350.15,439.8,350,440.72z"/>
		<path class="st0" d="M246,446.39c-0.86-0.8-1.16-1.82-1.5-2.83c-0.32-0.97-0.51-2.02-0.83-3c-0.23-0.69-0.45-2.1-1-2.67h-5
			c0.2,1.34,0.78,2.44,1,3.83c0.08,0.52,0.51,1.27,0.67,1.83c0.19,0.65,0.46,1.22,0.67,1.83c0.5,1.51,1.1,2.64,2.5,3.75
			c1.11,0.88,2.51,1.25,3.83,1.75h14.33c-3.75-1.41-7.79-2.31-11.67-3.33C247.93,447.27,246.83,447.16,246,446.39z"/>
		<path class="st0" d="M298.67,436.89h-3c-1.6,0.8-2.81,1.48-3.67,3c-0.99,1.1-1.06,4.58,0,5.67c0.84,1.52,2.07,2.2,3.67,3h2.67
			c1.61-0.6,3.11-1.42,4-3c0.11-1.04,0.67-1.72,0.67-2.83c0-1.07-0.76-1.86-0.67-2.83C301.52,438.45,300.08,437.6,298.67,436.89z
			 M296,445.56c-2.24-1.52-2.25-4.15,0-5.67h2.33c1.02,0.68,1.77,1.75,1.67,3c-0.07,0.77-0.12,1.09-0.67,1.67
			c-0.27,0.28-0.79,0.54-1,1H296z"/>
		<path class="st0" d="M403.33,422.06c-0.15-1.07-0.6-2.1-0.67-3.17c-0.22-1.78-1.77-3.26-2-5c-0.14-1.04-0.07-1.78,0.67-2.5
			c0.94-0.92,1.5-1.09,0-1.83h-2c-2.15,0.81-3.68,1.76-4,4c-0.17,1.17-0.2,1.82-0.67,2.83c-0.38,0.83-1.39,1.49-1.33,2.5H393
			c-0.58,0.95-1.16,1.79-1.83,2.67c-0.68,0.89-1.51,1.99-2.33,2.67c-0.9,0.74-1.86,1.51-2.83,2.17c-0.69,0.46-1.97,1.06-2.33,1.83
			H383c0,0.11,0,0.22,0,0.33h-2.33c-0.76-0.38-1.3-0.87-2-1.33h-0.33c0.05-0.71-0.48-0.61-0.67-1.17c-0.26-0.75-0.3-0.42,0.17-0.92
			c0.52-0.56,1.84-1.14,2.5-1.58h0.33c2.19-1.46,4.28-3.34,5.83-5.33c1.45-1.85,2.17-3.52,2.17-6c-0.76-1.17-1.31-1.99-2.67-2.67
			h-2.67c-1.45,0.54-3.88,1.25-4.67,2.67h-0.33c-0.64,1.13-1.85,1.84-2.67,2.83c-0.6,0.74-1.23,1.96-1.67,2.83
			c-0.47,0.94-1.01,2.01-1.33,3c-0.25,0.77-0.04,2.02-0.67,2.67c-0.65,1.45-1.88,2.25-2.67,3.67H369c-0.61,1.07-1.62,1.48-2.67,2
			H366c-0.4-0.71-0.8-0.95-0.67-1.83c0.09-0.6,0.48-1.11,0.67-1.67c0.23-0.68,0.45-1.35,0.67-2c0.19-0.56,0.48-1.11,0.67-1.67
			c0.42-1.27,1.08-2.46,1.67-3.67c0.4-0.83,1.16-2.51,1-3.5h0.33c0-0.39,0-0.78,0-1.17c0-0.45,0.33-1.09,0.33-1.33
			c0-0.87-0.56-1.72-1-2.5h-3c-1.82,1.23-4.22,3.05-5.33,5c-0.67,1.2-1.57,2.23-2.33,3.33h-0.33c0.54-0.58,0.44-1.49,0.67-2.17
			c0.22-0.65,0.44-1.32,0.67-2c0.3-0.9,1.99-3.52,0.33-4.17h-3c-0.48,0.88-0.71,1.29-1,2.17c-0.22,0.65-0.44,1.32-0.67,2
			c-0.24,0.71-0.57,1.46-0.83,2.17c-0.21,0.57-0.63,1.32-0.5,2H354c0.2,0.91-0.56,2.19-0.83,3c-0.33,0.98-0.73,1.9-1.17,2.83
			c-0.98,2.08-3.16,4.08-5.33,5.17h-0.33c-1.2-0.56-0.63-2.6-0.33-3.5c0.43-1.29,1.11-2.43,1.67-3.67c0.25-0.56,0.43-1.26,0.67-1.83
			c0.25-0.61,0.46-1.21,0.67-1.83c0.34-1.03,1.45-2.35,1.33-3.5c0.16-1.27,1.13-4.3-0.67-5H347c-1.96,1.65-4.05,2.74-5.33,5h-0.33
			c-0.41,0.92-2.18,2.34-2,3.33H339c0.18-1.41,0.89-2.83,1.33-4.17c0.49-1.47,1.69-3.05,0-4.17h-2.67
			c-0.75,0.29-1.12,1.52-1.33,2.17c-0.23,0.68-0.45,1.35-0.67,2c-0.24,0.73-0.44,1.46-0.67,2.17c-0.17,0.53-0.21,1.54-0.67,2
			c0.02,0.97-0.71,1.96-1,2.83c-0.34,1.03-0.6,1.89-1.17,2.83c-1.26,2.09-3.27,3.55-5.5,4.67h-3c-0.76-0.38-1.3-0.87-2-1.33h-0.33
			c-0.18-0.39-0.56-0.81-0.67-1.17c-0.24-0.8-0.27-0.38,0.17-0.92c0.54-0.66,1.82-0.99,2.5-1.58h0.33c0.44-0.94,2.07-1.57,2.83-2.33
			c0.98-0.98,2.15-1.91,3-3c1.38-1.76,2.17-3.65,2.17-6c-0.76-1.17-1.31-1.99-2.67-2.67h-2.67c-1.45,0.54-3.88,1.25-4.67,2.67h-0.33
			c-0.64,1.13-1.85,1.84-2.67,2.83c-0.6,0.74-1.23,1.96-1.67,2.83c-0.47,0.94-1.01,2.01-1.33,3c-0.25,0.77-0.04,2.02-0.67,2.67
			c-0.64,1.44-1.89,2.27-2.67,3.67H312c-0.61,1.07-1.62,1.48-2.67,2H309c0-0.11,0-0.22,0-0.33h-0.33c0-0.11,0-0.22,0-0.33h-0.33
			c0-1.61,0.57-3.28,1.17-4.67c0.63-1.48,1.06-3.11,1.5-4.67c0.24-0.85,0.72-1.67,1-2.5c0.26-0.77,0.4-1.55,0.67-2.33
			c0.26-0.79,0.73-1.54,1-2.33c0.37-1.11,0.25-1.12-0.33-2.17h-2.67c-1.77,1.17-2.09,3.09-2.67,4.83c-0.56,1.67-1.11,3.33-1.67,5
			c-0.26,0.77-0.4,1.55-0.67,2.33c-0.36,1.07-0.89,1.73-1.67,2.67c-1.34,1.62-2.64,2.82-4.67,3.83h-3.67
			c-0.64-0.43-1.29-0.98-1.67-1.67h-0.33c-1.31-2.17-1.85-5.29-1-7.83c0.48-1.44,0.8-2.71,1.67-4c0.97-1.45,2.29-2.34,3.67-3.5h1.33
			c0.42,0.74,0.69,0.79,0.67,1.67c-0.02,0.73-0.28,1.08-0.17,1.67c0.12,0.58,1.06,1.39,1.5,1.83c0.47,0.47,1,0.91,1.33,1.5h0.67
			c0.01-1.13,0.67-2.09,0.67-3.33c0-1.22-0.32-2.34-1-3.33c-0.38-0.68-1.02-1.24-1.67-1.67h-3.67c-1.02,0.51-2.12,0.94-3,1.67h-0.33
			c-0.8,1.45-2.46,2.53-3.33,3.83c-0.84,1.26-1.54,2.49-2.17,3.83c-0.56,1.2-0.75,2.58-1.17,3.83c-0.47,1.42-1.66,2.43-2.33,3.83
			H285c-0.5,0.9-1.58,1.14-2,2h-2c-0.58-0.55,0.09-2.78,0.33-3.5c0.38-1.15,0.99-2.4,1.5-3.5c0.54-1.15,1.1-2.3,1.5-3.5
			c0.21-0.62,0.48-1.18,0.67-1.83c0.11-0.39,0.32-1.32,0.67-1.67c-0.19-0.77,0.33-1.62,0.33-2.5c0-0.36,0.12-1,0-1.33
			c-0.15-0.39-0.77-0.76-1-1.17h-2.67c-0.97,0.81-2.08,1.29-3,2.17c-0.98,0.93-1.62,1.8-2.33,2.83h-0.33
			c-0.75,1.33-1.6,2.34-2.33,3.67H274c0.54-0.58,0.44-1.49,0.67-2.17c0.25-0.74,0.7-1.44,1-2.17c0.29-0.68,0.43-1.46,0.67-2.17
			c0.36-1.07,0.5-1.4-0.67-2.17H273c-1.38,0.91-1.59,2.9-2,4.33c-0.2,0.7-0.43,1.45-0.67,2.17c-0.22,0.67-0.85,1.35-0.67,2.17h-0.33
			c0.24,1-0.7,2.61-1,3.5c-0.41,1.24-0.92,2.43-1.33,3.67c-0.41,1.24-0.92,2.44-1.33,3.67c-0.29,0.87-1.26,2.57-0.33,3.5h3
			c1.37-0.93,1.4-2.21,2-3.5c0.56-1.22,1.08-2.47,1.67-3.67c1.23-2.52,2.92-4.64,4.33-7.17c0.79-1.4,2.21-2.24,3-3.67h1
			c0,1.3-0.28,2.35-0.67,3.5c-0.38,1.14-0.85,2.4-1.33,3.5c-0.52,1.17-0.92,2.27-1.33,3.5c-0.19,0.58-0.5,1.25-0.67,1.83
			c-0.14,0.49-0.38,1.18-0.33,1.67c0,1.6,0.02,2.63,0.67,4h3.67c1.71-1.44,4.15-1.93,5.33-4H286c0.36-0.66,1.47-1.2,1.33-2h0.33
			c-0.18,0.75,0.4,0.98,0.33,1.67c0,0.11,0,0.22,0,0.33h0.33c0.26,2.06,2.57,3.12,4.33,4h4c2.15-0.81,5.15-1.9,6.33-4h0.33
			c0,0.11,0,0.22,0,0.33c0,1.22-0.35,3.11,1,3.67h3.33c0.99-0.49,1.95-0.96,2.83-1.58c0.71-0.5,2.12-1.27,2.5-2.08h0.33
			c0.42-0.69,0.93-1.27,1.33-2H315c0.35,0.36,0.4,0.85,0.33,1.33c0.28,0.28,0.4,0.61,0.33,1H316c0.81,1.77,2.28,2.47,4,3.33h4
			c1.82-0.68,4.66-1.56,5.67-3.33h0.67c-0.15,0.95-1.35,2.32-0.33,3.33h3c0.95-0.64,2.11-2.21,2-3.33c0.28-0.28,0.4-0.61,0.33-1
			h0.33c0.21-1.73,1.38-3.74,2.33-5.17c0.58-0.88,1.07-1.78,1.67-2.67c0.36-0.55,1.4-1.79,1.33-2.5h0.33
			c0.71-1.27,1.95-2.04,2.67-3.33h1c0,2.69-1.21,4.8-2,7.17c-0.2,0.6-0.54,1.27-0.83,1.83c-0.29,0.58-0.29,1.21-0.5,1.83
			c-0.21,0.62-0.48,1.18-0.67,1.83c-0.14,0.49-0.38,1.18-0.33,1.67c0,0.59-0.09,1.25,0,1.83c0.11,0.72,0.63,1.17,1,1.83H345
			c1.71-0.85,4.04-1.93,5-3.67h0.33c-0.43,0.47-0.49,1.31-0.67,1.83c-0.22,0.67-0.74,1.39,0.33,1.83h2.67
			c0.74-0.5,1.31-1.1,1.67-1.83c0.27-0.56,0.18-1.32,0.67-1.83c0.57-0.93,0.87-1.89,1.33-2.83c0.44-0.9,0.8-1.78,1.33-2.67
			c1.1-1.83,2.24-3.57,3.33-5.5h0.33c-0.07-1.22,2.07-2.27,2.67-3.33h1c0.14,0.57-0.16,1.33-0.33,1.83
			c-0.19,0.56-0.48,1.11-0.67,1.67c-0.42,1.25-0.92,2.44-1.33,3.67c-0.78,2.34-2,4.51-2,7.17c0,0.61,0,1.22,0,1.83
			c0,0.87,0.26,1.11,0.67,1.83h3.33c0.99-0.49,1.95-0.96,2.83-1.58c0.71-0.5,2.12-1.27,2.5-2.08h0.33c0.41-0.75,0.92-1.25,1.33-2
			H372c0.35,0.36,0.4,0.85,0.33,1.33h0.33c-0.18,0.97,0.82,2.06,1.5,2.67c0.84,0.74,1.83,1.16,2.83,1.67h4
			c2.31-0.87,5.74-2.07,7-4.33h0.33c0-0.11,0-0.22,0-0.33h0.33c0,1.34,0.26,2.26,1,3.33H390c0.34,0.67,1.11,0.85,1.67,1.33h4.67
			c0.86-0.43,1.97-0.66,2.67-1.33h0.67c0.69-1.22,2.11-1.96,2.67-3.17c0.44-0.97,0.85-2.09,1-3.17
			C403.47,424.3,403.46,422.98,403.33,422.06z M325,412.22h0.67c2.26,1.51,1.53,4.26,0.33,6.17c-0.73,1.16-1.75,2.06-2.83,2.92
			c-0.78,0.62-2.41,1.35-2.83,2.25h-0.67C319.67,419.3,320.75,414.35,325,412.22z M377.67,417.72c0.33-1,0.67-2.16,1.33-3
			c0.86-1.09,1.98-1.63,3-2.5h0.67c2.37,1.59,1.57,4.2,0.33,6.17c-0.73,1.16-1.75,2.06-2.83,2.92c-0.78,0.62-2.41,1.35-2.83,2.25
			h-0.67C376.67,421.35,377.03,419.63,377.67,417.72z M393.33,431.56c-1.1-0.55-2.91-2.01-1.67-3.33c0.62-1.09,1.51-1.6,2.67-1.92
			c1.23-0.34,1.52-0.77,1.33-2.08c-0.1-0.68-0.32-0.88-0.67-1.33c-0.55-0.71-0.73-0.42,0-1.33c0.66-0.83,1.05-1.77,1.67-2.67H397
			c0,1.27,0.53,2.16,0.67,3.33c0.12,1.02,0,2.14,0,3.17c0,1.02-0.26,2.44-0.67,3.33c-0.63,1.38-1.47,1.83-2.67,2.83H393.33z"/>
		<path class="st0" d="M231.33,431.56c2.28-1.52,3.48-3.83,3.67-6.33c0.05-0.69,0.29-1.04,0.33-1.67c0.04-0.64-0.25-0.95-0.33-1.5
			c-0.16-1.1-0.33-2.1-0.33-3.17h-0.33c0.18-0.71-0.38-1.92-0.67-2.5c-0.43-0.88-0.73-1.55-1-2.5c-0.3-1.04-0.49-1.49,0.33-2.33
			c0.18-0.19,1.38-0.85,1.33-1.17c-0.06-0.37-1.05-0.69-1.33-0.83h-1.67c-2.1,0.79-4,1.58-4,4c0,1.94-1.31,3.76-2.33,5.33
			c-0.76,1.38-1.9,2.73-3,3.83c-0.66,0.66-1.3,1.37-2,2c-0.53,0.48-1.35,0.87-1.67,1.5H218c-1.11,0.74-2.31,1.49-3.33,2.33h-2.33
			c0-0.11,0-0.22,0-0.33h-0.67c-0.55-0.38-1.31-0.93-1.67-1.5c-0.03-0.05-0.66-1.36-0.67-1.33c0.21-0.67,2.28-0.98,2.67-1.83h0.67
			c0.44-0.94,2.05-1.64,2.83-2.33c1.01-0.89,2.17-1.94,3-3c1.34-1.71,2.17-3.71,2.17-6h-0.33c0.35-1.43-1.66-2.16-2.67-2.67h-2.33
			c-1.59,0.6-3.78,1.08-4.67,2.67h-0.33c-1.98,1.34-3.37,3.75-4.33,5.67c-0.49,0.98-0.99,1.96-1.33,3
			c-0.15,0.45-0.18,0.88-0.33,1.33c-0.15,0.43-0.38,0.84-0.33,1.33c0,1.19-0.01,1.69-1,2.5c-0.84,0.69-1.74,1.55-2.67,2.17H200
			c-0.33,0.22-0.67,0.44-1,0.67h-0.33c-1.37-0.68-1.9-1.38-2.33-2.67c-0.36-1.09-0.36-1.76,0-2.83c0.25-0.74,0.31-0.83,0.83-1.5
			c0.38-0.48,0.66-0.99,1.17-1.5c0.89-0.89,1.72-1.75,2.33-2.83H201c-0.1-0.78,0.74-1.12,1.17-1.67c0.37-0.47,0.69-1.15,1-1.67
			c0.7-1.16,1.55-2.17,2.17-3.33c0.61-1.14,1.1-2.34,1.67-3.5c0.3-0.61,0.45-1.02,0.67-1.67c0.13-0.39,0.33-1.14,0.67-1.5
			c-0.15-0.67,0.25-1.07,0.33-1.67c0.07-0.48,0-1.01,0-1.5c0-0.54,0.07-1.14,0-1.67c-0.1-0.73-0.31-0.87-0.67-1.5h-1
			c-1.22,1.03-2.51,1.68-3.67,2.83c-1.08,1.08-2.26,2.17-3,3.5c-0.68,1.21-1.49,2.21-2.17,3.33c-0.67,1.12-1.34,2.23-2,3.33
			c-0.66,1.1-1.26,2.33-1.83,3.5c-0.23,0.48-0.5,1.17-0.67,1.67c-0.16,0.48-0.46,0.91-0.33,1.5H193c0.16,0.85-0.41,2.06-0.67,2.83
			c-0.32,0.97-0.58,1.72-0.67,2.83c-0.08,1.06-0.42,1.84-0.33,3c0.07,0.96,0.33,1.63,0.33,2.67c0.24,1.92,1.19,3.81,3,5h2.67
			c1.26-0.63,2.23-1.34,3.33-2.17c0.81-0.61,2.77-1.67,2.67-2.83h0.33c0.11-0.22,0.22-0.44,0.33-0.67h0.33c0,0.11,0,0.22,0,0.33
			c0.62,1.01,0.86,1.8,1.83,2.67c0.84,0.74,1.83,1.16,2.83,1.67h4c1.25-0.47,2.51-1,3.67-1.67c0.95-0.55,2.89-1.66,3.33-2.67h0.67
			c0,1.42,0.33,1.83,1,3H222c0.4,0.72,0.96,0.98,1.67,1.33H228c0.95-0.35,1.89-0.66,2.67-1.33H231.33z M198.67,414.22
			c0.33-1.07,0.8-2.37,1.33-3.33c0.65-1.18,1.26-2.39,2-3.5c0.71-1.07,1.67-1.99,2.33-3.17h1c0.22,1-0.64,2.49-1,3.33
			c-0.51,1.19-1.16,2.21-1.83,3.33c-0.7,1.16-1.4,2.34-2.17,3.5c-0.55,0.83-2.42,2.13-2.33,3.17h-0.33
			C197.43,416.47,198.38,415.17,198.67,414.22z M213.67,412.22h1c2.39,1.6,1.19,4.36,0,6.17c-0.76,1.15-1.37,1.9-2.5,2.83
			c-1.03,0.85-2.14,1.49-3.17,2.33h-0.33C208.67,419.04,209.79,414.84,213.67,412.22z M225,431.56c-0.63-0.53-1.19-0.67-1.5-1.33
			c-0.23-0.49-0.17-1.08-0.17-1.67c0.68-1.11,1.3-1.48,2.33-2.33h1.67c0-0.61,0-1.22,0-1.83c0-0.22,0.08-0.8,0-1
			c-0.13-0.33-0.72-0.5-0.83-0.83c-0.38-1.17,1.98-2.34,1.83-3.67h0.33c0,0.58,0.37,1.12,0.5,1.67c0.12,0.51,0.08,1.09,0.17,1.67
			c0.15,0.96,0.51,2.01,0.33,3.17c-0.36,2.44-1.14,4.9-3.67,6.17H225z"/>
		<path class="st0" d="M312.33,408.56h2.33c2.01-1.36,1.99-3.97,0-5.33h-2.33C310.13,404.71,310.15,407.06,312.33,408.56z"/>
		<path class="st0" d="M283.33,403.22h0.33c-0.04,0.75,0.65,1.04,1,1.67H288c0.33-0.58,1.13-0.94,1-1.67h0.33
			c0.44-0.22,0.89-0.44,1.33-0.67h3.67c0-0.11,0-0.22,0-0.33h4c0-0.11,0-0.22,0-0.33h3.33c0-0.11,0-0.22,0-0.33h2.67
			c0-0.11,0-0.22,0-0.33H306c0-0.11,0-0.22,0-0.33h1c0,0.11,0,0.22,0,0.33c0.33,0.73,0.63,1.2,1.33,1.67h2.33
			c0.53-0.46,1.85-0.79,1.67-1.67h0.33c0-1.11-0.02-1.16,1-1.67c-0.15-0.26-0.58-0.61-0.67-0.83c-0.03-0.07,0.42-0.39,0.33-0.67
			c-0.16-0.53-0.7-0.98-1-1.5H312c0-0.11,0-0.22,0-0.33h-0.33c0-0.11,0-0.22,0-0.33s0-0.22,0-0.33c0-0.11,0-0.22,0-0.33
			c-0.11-0.22-0.22-0.44-0.33-0.67H310c0,0.22,0,0.44,0,0.67h-0.67c0-0.22,0-0.44,0-0.67c0-0.11,0-0.22,0-0.33h-5.67
			c0,0.11,0,0.22,0,0.33h-3c-0.32-0.45-0.34-0.88-0.67-1.33c-0.32-0.45-0.34-0.88-0.67-1.33h-1c0-0.11,0-0.22,0-0.33h-2
			c0-0.11,0-0.22,0-0.33h-2.67c0,0.11,0,0.22,0,0.33h-3c0,0.11,0,0.22,0,0.33H289c-0.86,0.43-1.97,0.66-2.67,1.33H286
			c0,0.11,0,0.22,0,0.33h-0.33c0,0.11,0,0.22,0,0.33h-0.33c0.02,0.82-0.54,2.27-1.33,2.67h-0.33c-0.6,1.05-1.92,1.66-1.67,3h-0.33
			c-0.07,0.48-0.01,0.97,0.33,1.33h-0.33c0,0.11,0,0.22,0,0.33c0,0.11,0,0.22,0,0.33h-0.33
			C281.09,402.75,282.43,402.88,283.33,403.22z M298.67,393.22c0.32,0.45,0.34,0.88,0.67,1.33c0.11,0.22,0.22,0.44,0.33,0.67H299
			c0,0.11,0,0.22,0,0.33h-2c0,0.11,0,0.22,0,0.33h-2c-0.55-0.59-0.33-1.58-0.33-2.33H295c0-0.11,0-0.22,0-0.33H298.67z M290,393.89
			h1.67c0-0.11,0-0.22,0-0.33H293c0.1,0.81,0.33,1.41,0.33,2.33c0,0.11,0,0.22,0,0.33h-1.67c0,0.11,0,0.22,0,0.33h-3
			C288.67,395.31,288.93,394.62,290,393.89z M310.33,399.56c0.73,0.69,0.01,1.05-0.33,1.67h-0.33c0-0.11,0-0.22,0-0.33h-0.33
			c-0.48-0.43-0.07-0.8,0-1.33H310.33z M286.67,401.56c0,0.11,0,0.22,0,0.33H287c0,0.11,0,0.22,0,0.33c0,0.11,0,0.22,0,0.33
			c-0.22,0.22-0.44,0.44-0.67,0.67h-0.67c-0.44-0.49-0.48-1.18,0-1.67H286.67z"/>
		<path class="st0" d="M266,417.72c0.34-1.02,0.43-2.1,0.67-3.17c0.24-1.1,0.39-2.22,0.67-3.33c0.25-1.02,0.33-2.17,0.67-3.17
			c0.36-1.08,0.49-2.16,0.67-3.33c0.08-0.56,0.24-1.03,0.33-1.67c0.08-0.55,0.47-0.86,0.33-1.5c0.2-1.58,1.13-3.24,0.33-4.83
			c-0.41-0.83-1.16-1.57-1.67-2.33c-0.51-0.76-1.17-1.61-1.67-2.5h-3c-1.56,1.03-2.57,3.28-3.33,4.83
			c-0.41,0.83-1.16,1.58-1.67,2.33c-0.55,0.83-1.2,1.57-1.67,2.5h-0.33c0.11,0.86-1.49,2.69-2,3.33c-0.87,1.09-1.5,2.49-2.33,3.5
			c-1.79,2.18-3.51,4.34-5,6.67c-1.54,2.4-3.54,4.59-5.33,6.83c-0.97,1.21-2,2.27-3,3.5c-0.77,0.94-2.02,2.02-2.67,3.17
			c-0.5,0.91-1.49,1.42-2,2.33h-0.33c0,0.11,0,0.22,0,0.33h-0.33c0,0.11,0,0.22,0,0.33H233c0,0.11,0,0.22,0,0.33h-0.33
			c0,0.11,0,0.22,0,0.33h-0.33c0,0.11,0,0.22,0,0.33H232c0,0.11,0,0.22,0,0.33h-0.33c-0.58,1.01-1.19,1.56-1,2.83
			c0.2,1.31,1.02,1.67,2,2.5H236c2.07-1.04,4.24-3.4,5.33-5.33H245c0-0.11,0-0.22,0-0.33h3c0-0.11,0-0.22,0-0.33h2.67
			c0-0.11,0-0.22,0-0.33H253c0-0.11,0-0.22,0-0.33h2c0-0.11,0-0.22,0-0.33h2c0-0.11,0-0.22,0-0.33h0.33
			c0.15,0.59-0.23,1.52-0.33,2.17c-0.09,0.54-0.58,1.46-0.67,2c-0.24,1.49-0.43,2.82-0.67,4.33c-0.02,0.1-0.26,0.79-0.33,1
			c-0.14,0.41-0.21,0.74-0.33,1.17c-0.22,0.76-0.21,1.36-0.33,2.17c-0.27,1.82-0.57,2.91,1.33,4.17h2.67c1.72-1.14,1.45-2.52,2-4.17
			c0.27-0.81,0.19-1.44,0.33-2.33c0.09-0.54,0.58-1.46,0.67-2c0.25-1.54,0.42-2.79,0.67-4.33c0.09-0.54,0.58-1.46,0.67-2
			c0.06-0.38-0.06-0.79,0-1.17c0.07-0.46,0.37-0.46,0.33-1c-0.19-0.76,0.33-1.49,0.33-2.33c0-0.11,0-0.22,0-0.33H264
			c0-0.11,0-0.22,0-0.33s0-0.22,0-0.33c0-0.47,0.21-1.16,0.33-1.67c0.13-0.52,0.16-0.99,0.33-1.5c0.36-1.07,0.31-2.27,0.67-3.33
			C265.69,419.98,265.64,418.8,266,417.72z M256,427.56c0,0.11,0,0.22,0,0.33h-2.33c0,0.11,0,0.22,0,0.33H250c0,0.11,0,0.22,0,0.33
			h-4.67c1.41-2.48,3.43-4.47,5-6.83c1.46-2.2,2.89-4.49,4.33-6.67c1.54-2.32,3.09-4.49,4.5-6.83c1.36-2.26,2.93-4.3,4.17-6.67h0.33
			c0.13,0.58-0.17,1.18-0.33,1.67c-0.17,0.5-0.16,0.99-0.33,1.5c-0.36,1.07-0.31,2.27-0.67,3.33c-0.68,2.05-1.04,4.32-1.33,6.5
			c-0.14,1.06-0.65,2.23-0.83,3.33c-0.08,0.47-0.25,1.19-0.33,1.67c-0.07,0.44-0.44,1.11-0.5,1.5c-0.05,0.32,0.05,0.67,0,1
			c-0.04,0.29-0.3,0.45-0.33,0.67c-0.1,0.63-0.25,1.11-0.33,1.67c-0.13,0.86-0.03,2.48-0.67,3.17H256z"/>
		<path class="st0" d="M227,402.22c0.18,0.6,0.72,1.33,0.67,2h6.67c-0.64-0.66-0.75-2.19-1-3c-0.17-0.57-0.24-0.86-0.33-1.5
			c-0.08-0.55-0.46-0.85-0.33-1.5c0.27-1.41,4.3-1.82,5.67-2.33H240c0.89-0.33,1.78-0.67,2.67-1h1.67c0.44-0.22,0.89-0.44,1.33-0.67
			h1.67c0.89-0.33,1.78-0.67,2.67-1h1.67c0.89-0.33,1.78-0.67,2.67-1H256c0-0.11,0-0.22,0-0.33h1.33c0-0.11,0-0.22,0-0.33H259
			c0.44-0.22,0.89-0.44,1.33-0.67h-21c-0.44,0.22-0.89,0.44-1.33,0.67h-1.33c0,0.11,0,0.22,0,0.33H235c0,0.11,0,0.22,0,0.33h-1.33
			c-0.89,0.33-1.78,0.67-2.67,1h-1c-0.44,0.33-0.89,0.67-1.33,1H228c-0.11,0.22-0.22,0.44-0.33,0.67h-0.33
			c-0.22,0.33-0.44,0.67-0.67,1h-0.33c-0.18,1.46-0.5,2.68,0,4.17C226.58,400.78,226.77,401.48,227,402.22z"/>
		<path class="st0" d="M338.33,391.89c2.18,0.82,4.49,1.18,6.67,2h1.67c2.18,0.82,4.49,1.18,6.67,2H355
			c1.05,0.39,2.08,0.68,3.17,0.96c0.51,0.13,1.01,0.25,1.5,0.43c0.85,0.32,0.83,0.29,0.83,0.94c0,1.01-0.85,2.23-1.17,3.17
			c-0.29,0.88-1.02,1.86-1,2.83h6.33c-0.19-0.78,0.45-1.52,0.67-2.17c0.22-0.67,0.44-1.33,0.67-2c0.32-0.96,1.41-3.09,0.33-4.17
			c-0.43-0.77-1.27-1.52-2-2h-0.67c-1.39-1.25-3.94-1.35-5.67-2h-1.33c-0.89-0.33-1.78-0.67-2.67-1h-20c0.89,0.33,1.78,0.67,2.67,1
			H338.33z"/>
	</g>
</g>
</svg>
